<?xml version="1.0" standalone="no"?>
<!DOCTYPE svg PUBLIC "-//W3C//DTD SVG 20010904//EN"
 "http://www.w3.org/TR/2001/REC-SVG-20010904/DTD/svg10.dtd">
<svg version="1.0" xmlns="http://www.w3.org/2000/svg"
 width="178.000000pt" height="178.000000pt" viewBox="0 0 178.000000 178.000000"
 preserveAspectRatio="xMidYMid meet">
<metadata>
Created by potrace 1.11, written by Peter Selinger 2001-2013
</metadata>
<g transform="translate(0.000000,178.000000) scale(0.100000,-0.100000)"
fill="#000000" stroke="none">
<path d="M94 1319 c-73 -142 13 -330 180 -389 36 -13 26 -24 -38 -43 -28 -7
-51 -18 -53 -23 -6 -17 67 -94 109 -115 56 -28 104 -32 166 -13 31 10 56 13
61 8 4 -5 18 -34 31 -64 12 -30 33 -77 45 -105 12 -27 35 -77 49 -111 40 -89
58 -97 229 -99 201 -2 198 -4 292 192 41 85 75 158 75 162 0 5 30 8 68 7 92
-1 150 32 204 115 17 28 15 39 -9 39 -20 0 -87 29 -81 36 3 3 27 7 53 9 63 6
106 28 157 81 45 46 75 109 83 176 6 47 -17 139 -39 158 -13 10 -16 7 -21 -17
-16 -77 -29 -107 -61 -143 -60 -67 -75 -70 -318 -70 l-215 0 -146 -110 c-80
-60 -152 -110 -160 -110 -25 0 -32 32 -30 128 l3 92 -217 0 c-208 0 -220 1
-262 23 -57 30 -106 102 -115 168 -4 27 -10 49 -15 49 -5 0 -16 -14 -25 -31z"/>
</g>
</svg>
